<svg xmlns="http://www.w3.org/2000/svg" x="0px" y="0px"
width="32" height="32"
viewBox="0,0,256,256"
style="fill:#000000;">
<g fill-opacity="0" fill="#dddddd" fill-rule="nonzero" stroke="none" stroke-width="1" stroke-linecap="butt" stroke-linejoin="miter" stroke-miterlimit="10" stroke-dasharray="" stroke-dashoffset="0" font-family="none" font-weight="none" font-size="none" text-anchor="none" style="mix-blend-mode: normal"><path d="M0,256v-256h256v256z" id="bgRectangle"></path></g><g fill="#000000" fill-rule="nonzero" stroke="none" stroke-width="1" stroke-linecap="butt" stroke-linejoin="miter" stroke-miterlimit="10" stroke-dasharray="" stroke-dashoffset="0" font-family="none" font-weight="none" font-size="none" text-anchor="none" style="mix-blend-mode: normal"><g transform="scale(8,8)"><path d="M15.5,4c-4.136,0 -7.5,4.54862 -7.5,10.14063c0,2.72448 0.80866,5.18673 2.10742,7.00977c-0.19561,0.53634 -0.1173,1.13439 0.2098,1.60229c0.3271,0.4679 0.86188,0.74683 1.43278,0.74732c0.9665,0 1.75,-0.7835 1.75,-1.75c0,-0.9665 -0.7835,-1.75 -1.75,-1.75c-0.01759,0.00039 -0.03517,0.00104 -0.05273,0.00195c-1.04368,-1.48117 -1.69727,-3.55803 -1.69727,-5.86133c0,-4.489 2.468,-8.14062 5.5,-8.14062c2.17,0 4.04545,1.87403 4.93945,4.58203c0.772,0.228 1.53816,0.516 2.28516,0.875c-0.873,-4.292 -3.77661,-7.45703 -7.22461,-7.45703zM14.25,11.75c-0.9665,0 -1.75,0.7835 -1.75,1.75c0,0.9665 0.7835,1.75 1.75,1.75c0.74765,-0.00064 1.41231,-0.47619 1.6543,-1.18359c1.89562,-0.22634 4.12687,0.32691 6.16211,1.57813c3.849,2.368 5.89099,6.60114 4.45898,9.24414c-0.504,0.929 -1.39131,1.58539 -2.57031,1.90039c-1.215,0.325 -2.63031,0.26128 -4.07031,-0.13672c-0.556,0.533 -1.17408,1.02619 -1.83008,1.49219c1.417,0.558 2.86547,0.85352 4.23047,0.85352c0.761,0 1.49655,-0.08944 2.18555,-0.27344c1.722,-0.461 3.03955,-1.45686 3.81055,-2.88086c1.987,-3.669 -0.28297,-8.8993 -5.16797,-11.9043c-2.52568,-1.55461 -5.37334,-2.20261 -7.79101,-1.82031c-0.30654,-0.23865 -0.68378,-0.36852 -1.07227,-0.36914zM6.13672,16.13867c-2.904,2.974 -3.98388,6.82108 -2.42187,9.70508c0.772,1.424 2.08855,2.41986 3.81055,2.88086c0.689,0.185 1.4265,0.27344 2.1875,0.27344c2.076,0 4.3483,-0.6715 6.4043,-1.9375c2.63977,-1.62338 4.50508,-3.89626 5.35742,-6.2207c0.74586,-0.3431 1.15295,-1.15858 0.97887,-1.9609c-0.17407,-0.80233 -0.8825,-1.37578 -1.70348,-1.37894c-0.69123,0.00034 -1.31749,0.40753 -1.59826,1.03916c-0.28077,0.63163 -0.16344,1.36935 0.29943,1.88272c-0.75927,1.82634 -2.29688,3.65409 -4.37891,4.93555c-2.352,1.446 -4.9793,1.98159 -7.0293,1.43359c-1.179,-0.315 -2.06731,-0.97239 -2.57031,-1.90039c-0.941,-1.737 -0.37506,-4.15906 1.21094,-6.28906c-0.246,-0.785 -0.43387,-1.60689 -0.54687,-2.46289z"></path></g></g>
</svg>